# xmcd
#
# Track frame offsets:
#	150
#	13107
#	25423
#	39356
#	52521
#	67415
#	78273
#	88340
#	98470
#	113968
#	124544
#	140345
#	151160
#	161447
#	171550
#	181052
#	192746
#
# Disc length: 2760 seconds
#
# Revision: 0
# Processed by: cddbd v1.5.1PL0 Copyright (c) Steve Scherf et al.
# Submitted via: audiograbber 1.82.02
#
DISCID=da0ac611
DTITLE=Steve Ivey  - Best of bluegrass Gospel - Vol 2
DYEAR=2004
DGENRE=Bluegrass Gospel
TTITLE0=Wonderful Words of Life
TTITLE1=To God Be The Glory
TTITLE2=Believe
TTITLE3=Jesus Loves Me
TTITLE4=When I Survey
TTITLE5=Count Your Blessings
TTITLE6=The Solid Rock
TTITLE7=Lily Of the Valley
TTITLE8=Cover Me
TTITLE9=Blessed Assurance
TTITLE10=Blessed
TTITLE11=Can't Take It With You
TTITLE12=My Jesus I Love You
TTITLE13=Sunshine In My Soul
TTITLE14=Come Thou Almighty King
TTITLE15=Fairest Lord Jesus
TTITLE16=Sweet Hour Of Prayer
EXTD=
EXTT0=
EXTT1=
EXTT2=
EXTT3=
EXTT4=
EXTT5=
EXTT6=
EXTT7=
EXTT8=
EXTT9=
EXTT10=
EXTT11=
EXTT12=
EXTT13=
EXTT14=
EXTT15=
EXTT16=
PLAYORDER=
